<?xml version="1.0" encoding="UTF-8" standalone="no"?>
<!DOCTYPE svg PUBLIC "-//W3C//DTD SVG 20010904//EN"
              "http://www.w3.org/TR/2001/REC-SVG-20010904/DTD/svg10.dtd">

<svg xmlns="http://www.w3.org/2000/svg"
     width="0.6in" height="0.6in"
     viewBox="0 0 180 180">
  <path id="Selection"
        fill="black" stroke="black" stroke-width="1"
        d="M 83.00,19.42
           C 83.00,19.42 70.00,21.74 70.00,21.74
             50.43,27.17 33.72,41.49 25.31,60.00
             5.99,102.55 31.96,153.50 79.00,160.00
             85.07,160.84 89.80,161.46 96.00,160.72
             111.89,158.81 123.43,154.85 136.00,144.54
             180.51,108.03 162.50,31.24 105.00,20.61
             97.61,19.25 90.49,18.51 83.00,19.42 Z
           M 115.00,76.00
           C 123.74,77.37 138.85,85.44 130.57,95.91
             126.08,101.58 118.78,102.48 117.11,105.41
             115.41,108.39 119.87,122.16 111.81,126.83
             106.81,129.72 100.31,126.67 96.00,123.90
             94.32,122.82 91.62,120.34 89.58,120.66
             86.95,121.07 83.23,126.42 76.00,127.67
             61.48,130.19 62.11,114.44 65.00,105.00
             59.34,103.02 52.09,100.25 48.74,94.98
             42.22,84.75 56.57,76.89 65.00,76.00
             62.80,67.28 60.60,49.86 75.00,51.91
             82.55,52.98 86.21,58.64 90.00,58.69
             93.75,58.74 98.41,52.34 106.00,51.56
             118.64,50.26 116.87,68.33 115.00,76.00 Z
           M 68.00,74.00
           C 70.86,73.97 73.15,73.99 76.00,73.37
             77.85,72.96 79.27,72.56 80.83,71.42
             82.66,70.08 85.88,66.43 85.82,64.04
             85.70,59.56 75.14,54.52 71.14,56.35
             68.32,57.63 67.44,61.19 67.19,64.00
             66.89,67.26 67.73,70.72 68.00,74.00 Z
           M 112.00,74.00
           C 112.16,70.52 113.12,66.22 112.68,63.00
             111.52,54.53 106.49,54.30 100.00,57.90
             97.84,59.10 94.33,61.22 94.33,64.04
             94.34,66.15 96.94,69.33 98.44,70.69
             100.05,72.14 100.95,72.50 103.01,73.02
             105.95,73.77 108.99,73.93 112.00,74.00 Z
           M 86.00,72.00
           C 86.00,72.00 94.00,72.00 94.00,72.00
             90.93,66.81 89.07,66.81 86.00,72.00 Z
           M 82.52,76.99
           C 75.46,83.46 73.45,89.75 78.62,98.00
             79.82,99.91 81.06,101.85 83.10,102.98
             85.37,104.23 89.41,104.04 92.00,104.00
             93.89,103.96 95.96,104.02 97.62,102.98
             100.43,101.23 105.25,92.33 104.97,89.00
             104.74,86.31 100.56,79.30 98.47,77.60
             95.42,75.11 86.03,75.62 82.52,76.99 Z
           M 70.00,78.00
           C 70.00,78.00 72.00,85.00 72.00,85.00
             72.00,85.00 77.00,77.00 77.00,77.00
             77.00,77.00 70.00,78.00 70.00,78.00 Z
           M 103.00,77.00
           C 103.00,77.00 107.00,85.00 107.00,85.00
             107.00,85.00 110.00,78.00 110.00,78.00
             110.00,78.00 103.00,77.00 103.00,77.00 Z
           M 66.00,101.00
           C 70.39,87.84 70.45,91.84 66.00,79.00
             63.12,79.96 59.61,81.01 57.00,82.53
             55.76,83.26 54.29,84.26 53.31,85.33
             45.73,93.69 60.20,99.05 66.00,101.00 Z
           M 114.00,79.00
           C 114.00,79.00 110.82,89.00 110.82,89.00
             110.61,91.00 111.05,92.17 111.75,94.00
             112.41,95.71 113.55,98.66 115.41,99.32
             118.39,100.37 130.61,94.99 128.36,88.04
             127.56,85.56 125.15,83.79 123.00,82.53
             120.39,81.01 116.88,79.96 114.00,79.00 Z
           M 88.02,82.45
           C 101.10,81.16 99.58,96.05 91.00,97.46
             84.14,98.59 76.92,86.98 88.02,82.45 Z
           M 72.00,95.00
           C 72.00,95.00 70.00,102.00 70.00,102.00
             70.00,102.00 77.00,103.00 77.00,103.00
             77.00,103.00 72.00,95.00 72.00,95.00 Z
           M 107.00,95.00
           C 107.00,95.00 103.00,103.00 103.00,103.00
             103.00,103.00 110.00,102.00 110.00,102.00
             110.00,102.00 107.00,95.00 107.00,95.00 Z
           M 68.00,106.00
           C 67.77,110.92 65.80,117.58 68.85,121.85
             73.56,128.44 84.91,119.64 85.66,116.91
             86.20,115.00 85.08,113.47 84.00,112.02
             79.79,106.32 74.51,106.53 68.00,106.00 Z
           M 93.00,117.00
           C 95.29,118.67 98.60,121.35 101.00,122.56
             114.75,129.54 113.04,113.87 112.00,106.00
             101.13,106.24 98.60,107.37 93.00,117.00 Z
           M 86.00,108.00
           C 88.94,112.96 91.18,113.42 94.00,108.00
             94.00,108.00 86.00,108.00 86.00,108.00 Z" />
</svg>
